<?xml version="1.0" standalone="no"?>
<!DOCTYPE svg PUBLIC "-//W3C//DTD SVG 20010904//EN"
 "http://www.w3.org/TR/2001/REC-SVG-20010904/DTD/svg10.dtd">
<svg version="1.0" xmlns="http://www.w3.org/2000/svg"
 width="16.000000pt" height="16.000000pt" viewBox="0 0 16.000000 16.000000"
 preserveAspectRatio="xMidYMid meet">
<metadata>
Created by potrace 1.11, written by Peter Selinger 2001-2013
</metadata>
<g transform="translate(0.000000,16.000000) scale(0.003333,-0.003333)"
fill="#000000" stroke="none">
<path d="M2565 4780 c-38 -10 -95 -27 -125 -39 -146 -57 -295 -81 -475 -76
-152 3 -177 7 -269 37 -58 19 -212 40 -228 31 -5 -2 -8 -35 -8 -73 l0 -68 -87
-1 c-175 -3 -303 -19 -303 -40 0 -4 14 -19 32 -32 158 -119 316 -277 389 -389
51 -78 64 -110 99 -243 53 -205 110 -340 167 -404 17 -18 36 -33 44 -33 17 0
-30 -39 -47 -40 -22 0 -348 -170 -469 -243 -246 -150 -328 -226 -373 -344 -6
-15 -23 -55 -38 -88 -25 -57 -27 -68 -29 -251 -1 -105 -5 -195 -8 -201 -7 -10
-76 -307 -84 -358 -2 -16 -8 -46 -13 -65 -5 -19 -12 -55 -15 -80 -3 -25 -11
-72 -16 -105 -6 -33 -13 -87 -14 -120 -6 -93 -6 -685 -1 -693 8 -14 -30 -86
-62 -115 -26 -25 -29 -34 -26 -70 11 -109 78 -226 175 -306 69 -56 205 -127
307 -160 57 -18 290 -73 367 -86 30 -5 57 -10 105 -20 14 -3 43 -7 65 -10 22
-3 63 -10 90 -15 28 -5 73 -12 100 -15 47 -5 66 -8 140 -20 17 -3 57 -7 90
-10 33 -4 96 -11 140 -17 127 -17 860 -20 980 -4 55 8 123 16 150 20 43 5 259
48 305 61 117 33 271 118 344 191 34 33 68 74 76 90 16 30 100 117 137 141 28
19 24 62 -11 108 -13 17 -30 65 -40 115 -10 47 -21 102 -26 122 -4 21 -6 99
-3 175 17 508 -5 721 -101 965 -109 282 -137 428 -96 508 21 42 16 75 -17 112
-9 10 -17 29 -18 42 -5 39 -35 126 -64 181 -14 28 -62 86 -106 130 -66 67 -97
89 -175 127 -52 25 -194 94 -315 153 -163 78 -231 117 -262 148 -24 22 -43 45
-43 50 0 5 24 36 54 69 69 75 94 128 112 237 29 164 69 286 117 355 129 184
390 469 441 482 30 7 35 24 9 25 -47 3 -217 -2 -241 -6 -15 -2 -43 -9 -62 -15
-50 -14 -120 -13 -120 3 0 6 11 36 25 65 14 30 25 55 25 57 0 2 -19 5 -42 8
-24 3 -92 19 -153 36 -101 27 -123 29 -270 29 -117 -1 -179 -5 -230 -18z
m-155 -2282 l0 -67 38 -6 c217 -37 357 -94 446 -182 56 -56 118 -164 131 -229
l6 -30 -166 -1 -165 0 -37 69 c-42 80 -109 144 -162 155 -34 7 -42 7 -75 4
-12 -1 -14 -37 -14 -207 0 -144 4 -206 12 -208 172 -39 365 -94 415 -119 164
-81 261 -233 261 -411 0 -125 -34 -218 -122 -331 -100 -127 -275 -223 -438
-241 -30 -3 -68 -7 -85 -9 -16 -1 -32 -3 -35 -4 -3 0 -6 -25 -6 -53 -2 -109 7
-99 -86 -96 l-83 3 -1 71 c-1 39 -4 76 -7 81 -4 6 -39 14 -78 17 -93 10 -227
49 -304 89 -33 17 -87 59 -120 92 -104 104 -138 204 -127 373 2 22 4 22 131
22 l129 0 6 -43 c20 -132 121 -235 275 -281 105 -31 96 -54 95 247 -1 144 -2
265 -3 268 0 4 -29 10 -63 13 -131 15 -289 63 -385 117 -124 71 -192 200 -179
340 7 80 54 217 91 265 97 127 279 210 500 227 l40 3 1 62 c1 34 2 64 3 65 0
2 37 4 81 3 l80 0 0 -68z"/>
<path d="M2140 2196 c-122 -27 -190 -96 -190 -193 0 -49 40 -114 87 -140 78
-43 196 -67 205 -40 4 10 3 357 -1 380 -1 10 -36 8 -101 -7z"/>
<path d="M2417 1423 c-2 -5 -4 -117 -5 -250 l0 -243 32 0 c44 0 143 27 191 51
119 61 165 172 118 280 -23 50 -48 78 -106 116 -55 35 -218 67 -230 46z"/>
<path d="M4750 3336 c0 -2 8 -10 18 -17 15 -13 16 -12 3 4 -13 16 -21 21 -21
13z"/>
<path d="M4755 2600 c3 -5 8 -10 11 -10 2 0 4 5 4 10 0 6 -5 10 -11 10 -5 0
-7 -4 -4 -10z"/>
<path d="M4766 1022 c-3 -5 1 -9 9 -9 8 0 12 4 9 9 -3 4 -7 8 -9 8 -2 0 -6 -4
-9 -8z"/>
</g>
</svg>
